<?xml version="1.0" encoding="utf-8"?>
<svg xmlns="http://www.w3.org/2000/svg" data-name="Layer 1" id="Layer_1" viewBox="0 0 822.05 504.32">
  <defs>
    <style>
      .cls-1 {
        fill: #c00101;
      }
    </style>
  </defs>
  <g>
    <g>
      <path d="M166.41,330.99l-39.67,89h21.1l7.93-19.07h41.26l7.9,19.07h21.61l-39.79-89h-20.34ZM162.28,385.28l14.17-34.06,14.11,34.06h-28.28Z"/>
      <path d="M293.42,380.06c0,8.48-1.74,14.58-5.21,18.31-3.48,3.73-8.35,5.59-14.62,5.59s-11.15-1.86-14.62-5.59c-3.48-3.73-5.21-9.83-5.21-18.31v-49.08h-20.6v49.84c0,13.05,3.56,23.1,10.68,30.13,7.12,7.04,16.99,10.55,29.62,10.55s22.5-3.52,29.62-10.55c7.12-7.04,10.68-17.08,10.68-30.13v-49.84h-20.34v49.08Z"/>
      <path d="M393.22,391.38c5.76-2.54,10.21-6.21,13.35-11,3.13-4.79,4.7-10.49,4.7-17.1s-1.57-12.46-4.7-17.29c-3.14-4.83-7.59-8.54-13.35-11.12-5.77-2.58-12.63-3.88-20.6-3.88h-38.52v89h20.6v-24.79h17.93c.32,0,.64-.02.96-.02l17.1,24.81h22.25l-19.89-28.53c.06-.03.12-.05.18-.07ZM385.72,351.84c3.14,2.71,4.71,6.53,4.71,11.44s-1.57,8.63-4.71,11.38c-3.14,2.76-7.88,4.13-14.24,4.13h-16.78v-31.02h16.78c6.36,0,11.1,1.36,14.24,4.07Z"/>
      <polygon points="448.02 382.86 489.34 382.86 489.34 366.84 448.02 366.84 448.02 347.51 494.81 347.51 494.81 330.99 427.55 330.99 427.55 419.99 496.46 419.99 496.46 403.46 448.02 403.46 448.02 382.86"/>
      <polygon points="549.21 394.55 522.14 330.99 499.89 330.99 538.29 419.99 558.63 419.99 597.16 330.99 576.69 330.99 549.21 394.55"/>
      <path d="M691.62,357.11c-2.46-5.55-5.87-10.4-10.23-14.56-4.37-4.15-9.49-7.37-15.38-9.66s-12.35-3.43-19.39-3.43-13.39,1.14-19.32,3.43c-5.93,2.29-11.11,5.51-15.51,9.66-4.41,4.15-7.82,9.03-10.24,14.62-2.41,5.59-3.62,11.7-3.62,18.31s1.21,12.71,3.62,18.31c2.42,5.59,5.81,10.47,10.17,14.62s9.54,7.37,15.51,9.66c5.97,2.29,12.48,3.43,19.52,3.43s13.37-1.14,19.26-3.43,11.02-5.49,15.38-9.6c4.36-4.11,7.77-8.98,10.23-14.62,2.46-5.64,3.69-11.76,3.69-18.37s-1.23-12.82-3.69-18.37ZM672.36,387.06c-1.4,3.48-3.37,6.48-5.91,9.03s-5.49,4.49-8.84,5.85c-3.35,1.36-7.02,2.03-11,2.03s-7.67-.68-11.06-2.03c-3.39-1.35-6.34-3.31-8.84-5.85-2.5-2.54-4.45-5.57-5.85-9.09-1.4-3.52-2.1-7.35-2.1-11.51s.7-8.09,2.1-11.57c1.4-3.48,3.37-6.48,5.91-9.03,2.54-2.54,5.49-4.49,8.84-5.85,3.35-1.35,7.01-2.03,11-2.03s7.67.68,11.06,2.03c3.39,1.36,6.33,3.31,8.84,5.85,2.5,2.54,4.45,5.55,5.85,9.03s2.1,7.33,2.1,11.57-.7,8.1-2.1,11.57Z"/>
    </g>
    <g>
      <polygon class="cls-1" points="31.15 461.67 18.22 483.63 5.07 461.67 0 461.67 0 494.81 5.87 494.81 5.87 473.14 16.76 491.02 19.5 491.02 30.4 472.85 30.44 494.81 36.26 494.81 36.21 461.67 31.15 461.67"/>
      <path class="cls-1" d="M62.8,470.9c-2.04-1.1-4.36-1.66-6.98-1.66s-4.89.55-6.91,1.66c-2.02,1.1-3.61,2.63-4.78,4.57-1.17,1.94-1.75,4.18-1.75,6.7s.58,4.72,1.75,6.67c1.17,1.96,2.76,3.5,4.78,4.62,2.02,1.12,4.32,1.68,6.91,1.68s4.95-.56,6.98-1.68c2.04-1.12,3.63-2.66,4.78-4.62,1.15-1.96,1.73-4.18,1.73-6.67s-.58-4.8-1.73-6.72c-1.15-1.93-2.75-3.44-4.78-4.54ZM62.37,486.38c-.65,1.2-1.54,2.12-2.67,2.75-1.14.63-2.43.95-3.88.95s-2.69-.32-3.81-.95c-1.12-.63-2.01-1.55-2.67-2.75-.66-1.2-.99-2.6-.99-4.21s.33-3.05.99-4.24c.66-1.18,1.55-2.09,2.67-2.72,1.12-.63,2.41-.95,3.86-.95s2.7.32,3.84.95,2.03,1.54,2.67,2.72c.65,1.18.97,2.6.97,4.24s-.32,3.01-.97,4.21Z"/>
      <path class="cls-1" d="M94.56,470.43c-1.59-.79-3.4-1.18-5.42-1.18-2.21,0-4.16.43-5.84,1.3-1.15.59-2.09,1.36-2.86,2.29v-3.31h-5.63v25.28h5.92v-12.78c0-1.71.29-3.12.88-4.24.58-1.12,1.41-1.96,2.48-2.53,1.07-.57,2.3-.85,3.69-.85,1.89,0,3.37.55,4.43,1.66s1.59,2.78,1.59,5.02v13.73h5.92v-14.49c0-2.56-.46-4.65-1.37-6.27-.92-1.62-2.17-2.83-3.76-3.62Z"/>
      <path class="cls-1" d="M117.26,490.26c-1.11,0-1.96-.33-2.58-.99-.62-.66-.92-1.59-.92-2.79v-12.02h6.77v-4.73h-6.77v-5.78h-5.92v5.78h-4.17v4.73h4.17v12.17c0,2.81.76,4.93,2.27,6.37,1.52,1.44,3.66,2.15,6.44,2.15,1.07,0,2.11-.14,3.12-.43s1.86-.71,2.56-1.28l-1.66-4.21c-.88.69-1.99,1.04-3.31,1.04Z"/>
      <path class="cls-1" d="M136.57,469.24c-2.02,0-3.97.26-5.85.78-1.88.52-3.5,1.3-4.85,2.34l2.32,4.31c.95-.79,2.11-1.41,3.48-1.85,1.37-.44,2.77-.66,4.19-.66,2.11,0,3.69.48,4.74,1.44,1.04.96,1.56,2.31,1.56,4.05v.38h-6.53c-2.56,0-4.61.33-6.15.99-1.55.66-2.66,1.56-3.34,2.7s-1.02,2.41-1.02,3.83.39,2.75,1.16,3.91,1.87,2.05,3.29,2.7c1.42.65,3.08.97,4.97.97,2.24,0,4.09-.41,5.56-1.23,1.02-.57,1.81-1.31,2.39-2.2v3.1h5.59v-14.82c0-3.66-1-6.37-3.01-8.12-2.01-1.75-4.84-2.63-8.5-2.63ZM139.67,489.84c-1.15.66-2.45,1-3.9,1s-2.7-.32-3.55-.95c-.85-.63-1.28-1.48-1.28-2.56,0-.95.35-1.74,1.04-2.39.69-.65,2.05-.97,4.07-.97h6.11v2.94c-.51,1.29-1.33,2.27-2.49,2.93Z"/>
      <path class="cls-1" d="M174.97,472.92c-.84-1.01-1.83-1.82-2.98-2.4-1.7-.85-3.63-1.28-5.78-1.28-2.4,0-4.57.51-6.51,1.52s-3.47,2.43-4.59,4.26c-1.12,1.83-1.68,3.96-1.68,6.39s.56,4.61,1.68,6.44c1.12,1.83,2.65,3.26,4.59,4.28s4.11,1.54,6.51,1.54c2.15,0,4.07-.43,5.78-1.3,1.03-.52,1.92-1.24,2.7-2.11v1.37c0,2.56-.65,4.47-1.94,5.75-1.29,1.28-3.33,1.92-6.11,1.92-1.73,0-3.45-.28-5.13-.83-1.69-.55-3.09-1.29-4.19-2.2l-2.65,4.45c1.42,1.17,3.24,2.06,5.47,2.67s4.5.92,6.84.92c4.42,0,7.79-1.08,10.13-3.24,2.33-2.16,3.5-5.53,3.5-10.11v-21.45h-5.63v3.39ZM173.81,485.17c-.65,1.09-1.56,1.94-2.72,2.56-1.17.61-2.49.92-3.98.92s-2.82-.31-4-.92c-1.18-.62-2.1-1.47-2.74-2.56-.65-1.09-.97-2.34-.97-3.76s.32-2.67.97-3.76c.65-1.09,1.56-1.92,2.74-2.51,1.19-.58,2.52-.88,4-.88s2.81.29,3.98.88c1.17.58,2.07,1.42,2.72,2.51.65,1.09.97,2.34.97,3.76s-.32,2.67-.97,3.76Z"/>
      <path class="cls-1" d="M205.73,470.85c-1.93-1.07-4.12-1.61-6.58-1.61s-4.77.55-6.75,1.66c-1.97,1.1-3.52,2.63-4.64,4.57-1.12,1.94-1.68,4.18-1.68,6.7s.57,4.72,1.73,6.67c1.15,1.96,2.78,3.5,4.88,4.62,2.1,1.12,4.55,1.68,7.36,1.68,2.21,0,4.17-.35,5.89-1.06s3.15-1.73,4.28-3.05l-3.17-3.65c-.88.95-1.9,1.64-3.03,2.08-1.14.44-2.41.66-3.83.66-1.64,0-3.09-.31-4.36-.95-1.26-.63-2.24-1.53-2.94-2.7-.44-.73-.72-1.54-.88-2.42h19.82c.03-.28.05-.58.07-.9s.02-.6.02-.85c0-2.65-.55-4.95-1.65-6.91-1.11-1.95-2.62-3.47-4.55-4.54ZM192.79,477.55c.61-1.12,1.47-2,2.56-2.63,1.09-.63,2.36-.95,3.81-.95s2.67.32,3.76.95c1.09.63,1.95,1.5,2.58,2.6.45.78.72,1.65.83,2.6h-14.36c.13-.95.4-1.81.82-2.58Z"/>
      <path class="cls-1" d="M219.37,487.28c-1.07,0-1.98.35-2.72,1.06-.74.71-1.11,1.67-1.11,2.86s.37,2.09,1.11,2.77c.34.31.72.54,1.13.71l-1.91,7.27h3.83l2.42-6.67c.31-.73.54-1.33.68-1.8s.24-.89.31-1.25c.06-.36.09-.7.09-1.02,0-1.17-.36-2.11-1.09-2.84-.73-.73-1.64-1.09-2.75-1.09Z"/>
      <polygon class="cls-1" points="237.97 466.88 248.96 466.88 248.96 494.81 255.11 494.81 255.11 466.88 266.09 466.88 266.09 461.67 237.97 461.67 237.97 466.88"/>
      <path class="cls-1" d="M274.99,473.23v-3.7h-5.63v25.28h5.92v-12.26c0-2.59.66-4.54,1.99-5.85s3.11-1.96,5.35-1.96c.22,0,.44,0,.66.02.22.02.46.06.71.12v-5.63c-2.43,0-4.46.44-6.09,1.33-1.21.66-2.18,1.55-2.91,2.66Z"/>
      <path class="cls-1" d="M296.67,469.24c-2.02,0-3.97.26-5.84.78-1.88.52-3.5,1.3-4.85,2.34l2.32,4.31c.95-.79,2.11-1.41,3.48-1.85,1.37-.44,2.77-.66,4.19-.66,2.11,0,3.7.48,4.74,1.44s1.56,2.31,1.56,4.05v.38h-6.53c-2.56,0-4.61.33-6.16.99-1.55.66-2.66,1.56-3.34,2.7-.68,1.14-1.02,2.41-1.02,3.83s.39,2.75,1.16,3.91,1.87,2.05,3.29,2.7c1.42.65,3.07.97,4.97.97,2.24,0,4.09-.41,5.56-1.23,1.02-.57,1.81-1.31,2.39-2.2v3.1h5.59v-14.82c0-3.66-1-6.37-3-8.12-2-1.75-4.84-2.63-8.5-2.63ZM299.77,489.84c-1.15.66-2.45,1-3.9,1s-2.7-.32-3.55-.95c-.85-.63-1.28-1.48-1.28-2.56,0-.95.35-1.74,1.04-2.39.69-.65,2.05-.97,4.07-.97h6.11v2.94c-.51,1.29-1.33,2.27-2.49,2.93Z"/>
      <path class="cls-1" d="M335.33,470.43c-1.59-.79-3.4-1.18-5.42-1.18-2.21,0-4.16.43-5.84,1.3-1.15.59-2.09,1.36-2.87,2.29v-3.31h-5.63v25.28h5.92v-12.78c0-1.71.29-3.12.88-4.24.58-1.12,1.41-1.96,2.48-2.53,1.07-.57,2.3-.85,3.69-.85,1.9,0,3.37.55,4.43,1.66,1.06,1.1,1.59,2.78,1.59,5.02v13.73h5.92v-14.49c0-2.56-.46-4.65-1.37-6.27-.91-1.62-2.17-2.83-3.76-3.62Z"/>
      <path class="cls-1" d="M363.97,481.81c-.93-.49-1.95-.88-3.05-1.16-1.1-.28-2.22-.5-3.34-.64-1.12-.14-2.14-.32-3.05-.54-.91-.22-1.66-.52-2.23-.9-.57-.38-.85-.95-.85-1.71,0-.82.43-1.5,1.3-2.04.87-.53,2.2-.8,4-.8,1.2,0,2.4.14,3.62.4,1.21.27,2.42.76,3.62,1.49l2.27-4.5c-1.14-.69-2.57-1.23-4.31-1.61-1.74-.38-3.46-.57-5.16-.57-2.27,0-4.24.32-5.89.97-1.65.65-2.94,1.56-3.86,2.75s-1.37,2.58-1.37,4.19c0,1.45.28,2.62.85,3.5s1.31,1.59,2.23,2.11,1.93.92,3.05,1.18c1.12.27,2.24.48,3.36.64,1.12.16,2.14.33,3.05.52.91.19,1.66.47,2.23.83s.85.89.85,1.59c0,.85-.42,1.53-1.25,2.03-.84.51-2.19.76-4.05.76-1.58,0-3.15-.24-4.73-.71s-2.94-1.07-4.07-1.8l-2.27,4.5c1.14.79,2.67,1.46,4.62,2.01,1.94.55,3.97.83,6.08.83,2.37,0,4.4-.33,6.11-.97,1.7-.65,3.02-1.55,3.95-2.72.93-1.17,1.4-2.54,1.4-4.12,0-1.42-.28-2.57-.85-3.46s-1.32-1.57-2.25-2.06Z"/>
      <path class="cls-1" d="M392.61,470.85c-1.91-1.07-4.11-1.61-6.6-1.61-2.15,0-4.06.47-5.73,1.4-1.02.57-1.9,1.34-2.65,2.27v-3.38h-5.63v34.46h5.92v-12.32c.72.82,1.54,1.52,2.48,2.04,1.69.95,3.56,1.42,5.61,1.42,2.49,0,4.7-.54,6.6-1.61s3.42-2.58,4.54-4.52c1.12-1.94,1.68-4.22,1.68-6.84s-.56-4.89-1.68-6.82c-1.12-1.93-2.64-3.42-4.54-4.5ZM391.83,486.38c-.66,1.2-1.56,2.12-2.67,2.75-1.12.63-2.39.95-3.81.95s-2.7-.32-3.84-.95c-1.14-.63-2.03-1.55-2.7-2.75-.66-1.2-.99-2.6-.99-4.21s.33-3.05.99-4.24c.66-1.18,1.56-2.09,2.7-2.72s2.41-.95,3.84-.95,2.69.32,3.81.95c1.12.63,2.01,1.54,2.67,2.72.66,1.18.99,2.6.99,4.24s-.33,3.01-.99,4.21Z"/>
      <path class="cls-1" d="M422.62,470.9c-2.03-1.1-4.36-1.66-6.98-1.66s-4.89.55-6.91,1.66c-2.02,1.1-3.61,2.63-4.78,4.57-1.17,1.94-1.75,4.18-1.75,6.7s.58,4.72,1.75,6.67c1.17,1.96,2.76,3.5,4.78,4.62,2.02,1.12,4.33,1.68,6.91,1.68s4.95-.56,6.98-1.68c2.03-1.12,3.63-2.66,4.78-4.62,1.15-1.96,1.73-4.18,1.73-6.67s-.57-4.8-1.73-6.72-2.75-3.44-4.78-4.54ZM422.19,486.38c-.65,1.2-1.54,2.12-2.67,2.75-1.14.63-2.43.95-3.88.95s-2.69-.32-3.81-.95c-1.12-.63-2.01-1.55-2.67-2.75-.66-1.2-.99-2.6-.99-4.21s.33-3.05.99-4.24c.66-1.18,1.56-2.09,2.67-2.72,1.12-.63,2.41-.95,3.86-.95s2.7.32,3.83.95,2.03,1.54,2.67,2.72c.65,1.18.97,2.6.97,4.24s-.32,3.01-.97,4.21Z"/>
      <path class="cls-1" d="M440.25,473.23v-3.71h-5.63v25.28h5.92v-12.26c0-2.59.66-4.54,1.99-5.85,1.33-1.31,3.11-1.96,5.35-1.96.22,0,.44,0,.66.02.22.02.46.06.71.12v-5.63c-2.43,0-4.46.44-6.08,1.33-1.21.66-2.18,1.55-2.91,2.67Z"/>
      <path class="cls-1" d="M465.25,490.26c-1.1,0-1.96-.33-2.58-.99-.61-.66-.92-1.59-.92-2.79v-12.02h6.77v-4.73h-6.77v-5.78h-5.92v5.78h-4.17v4.73h4.17v12.17c0,2.81.76,4.93,2.27,6.37,1.51,1.44,3.66,2.15,6.44,2.15,1.07,0,2.12-.14,3.13-.43,1.01-.28,1.86-.71,2.56-1.28l-1.66-4.21c-.88.69-1.99,1.04-3.32,1.04Z"/>
      <path class="cls-1" d="M515.29,479.94l-4.78-1.56c-.41,2.15-1.04,4.01-1.87,5.6l-7.15-6.86c1.03-.57,1.93-1.13,2.69-1.68,1.4-1.01,2.44-2.07,3.1-3.19.66-1.12.99-2.34.99-3.67,0-1.52-.37-2.82-1.11-3.91-.74-1.09-1.77-1.92-3.08-2.51s-2.86-.88-4.66-.88c-1.93,0-3.62.32-5.07.97-1.45.65-2.57,1.56-3.36,2.75s-1.18,2.55-1.18,4.09c0,.88.14,1.74.43,2.58.28.84.76,1.7,1.42,2.58.5.66,1.14,1.38,1.87,2.13-1.27.72-2.4,1.44-3.34,2.16-1.51,1.15-2.62,2.36-3.31,3.62-.69,1.26-1.04,2.68-1.04,4.26,0,1.74.52,3.27,1.56,4.59,1.04,1.33,2.48,2.37,4.31,3.13,1.83.76,3.9,1.14,6.2,1.14,2.94,0,5.59-.62,7.95-1.85,1.13-.59,2.17-1.31,3.14-2.14l4.2,4.03,3.27-3.83-4.19-4.02c1.39-2.15,2.41-4.65,3.01-7.53ZM496.33,466.47c.74-.65,1.78-.97,3.1-.97,1.23,0,2.18.29,2.84.88.66.58.99,1.35.99,2.3,0,.7-.21,1.36-.64,1.99-.43.63-1.17,1.29-2.23,1.99-.6.39-1.34.82-2.19,1.29-.63-.63-1.19-1.21-1.57-1.67-.53-.63-.91-1.2-1.11-1.7s-.31-1.03-.31-1.56c0-1.04.37-1.89,1.11-2.53ZM503.85,489.1c-1.65.9-3.49,1.35-5.51,1.35-1.36,0-2.54-.2-3.55-.59s-1.79-.94-2.34-1.63c-.55-.7-.83-1.5-.83-2.42s.22-1.75.66-2.51c.44-.76,1.17-1.52,2.18-2.27.63-.47,1.41-.96,2.32-1.47l8.74,8.39c-.53.44-1.07.83-1.66,1.16Z"/>
      <polygon class="cls-1" points="557.75 475.35 540.61 475.35 540.61 461.67 534.46 461.67 534.46 494.81 540.61 494.81 540.61 480.6 557.75 480.6 557.75 494.81 563.9 494.81 563.9 461.67 557.75 461.67 557.75 475.35"/>
      <path class="cls-1" d="M581.7,469.24c-2.02,0-3.97.26-5.84.78-1.88.52-3.5,1.3-4.85,2.34l2.32,4.31c.95-.79,2.11-1.41,3.48-1.85,1.37-.44,2.77-.66,4.19-.66,2.11,0,3.7.48,4.74,1.44s1.56,2.31,1.56,4.05v.38h-6.53c-2.56,0-4.61.33-6.16.99-1.55.66-2.66,1.56-3.34,2.7-.68,1.14-1.02,2.41-1.02,3.83s.39,2.75,1.16,3.91,1.87,2.05,3.29,2.7c1.42.65,3.07.97,4.97.97,2.24,0,4.09-.41,5.56-1.23,1.02-.57,1.81-1.31,2.39-2.2v3.1h5.59v-14.82c0-3.66-1-6.37-3-8.12-2-1.75-4.84-2.63-8.5-2.63ZM584.8,489.84c-1.15.66-2.45,1-3.9,1s-2.7-.32-3.55-.95c-.85-.63-1.28-1.48-1.28-2.56,0-.95.35-1.74,1.04-2.39.69-.65,2.05-.97,4.07-.97h6.11v2.94c-.51,1.29-1.33,2.27-2.49,2.93Z"/>
      <path class="cls-1" d="M619.15,482.31c0,1.67-.29,3.08-.88,4.21-.58,1.14-1.39,1.99-2.41,2.56-1.03.57-2.24.85-3.62.85-1.89,0-3.35-.56-4.38-1.68-1.03-1.12-1.54-2.82-1.54-5.09v-13.63h-5.92v14.44c0,2.53.46,4.62,1.37,6.27.91,1.66,2.19,2.89,3.83,3.69,1.64.8,3.53,1.21,5.68,1.21,1.96,0,3.75-.43,5.4-1.3,1.09-.58,2-1.35,2.74-2.27v3.24h5.63v-25.28h-5.92v12.78Z"/>
      <path class="cls-1" d="M648.81,481.81c-.93-.49-1.95-.88-3.05-1.16-1.11-.28-2.22-.5-3.34-.64s-2.14-.32-3.05-.54c-.92-.22-1.66-.52-2.23-.9-.57-.38-.85-.95-.85-1.71,0-.82.43-1.5,1.3-2.04.87-.53,2.2-.8,4-.8,1.2,0,2.41.14,3.62.4s2.42.76,3.62,1.49l2.27-4.5c-1.14-.69-2.57-1.23-4.31-1.61-1.73-.38-3.45-.57-5.16-.57-2.27,0-4.24.32-5.89.97s-2.94,1.56-3.86,2.75c-.91,1.18-1.37,2.58-1.37,4.19,0,1.45.28,2.62.85,3.5s1.31,1.59,2.23,2.11c.91.52,1.93.92,3.05,1.18s2.24.48,3.36.64,2.14.33,3.05.52c.91.19,1.65.47,2.23.83.57.36.85.89.85,1.59,0,.85-.42,1.53-1.25,2.03-.84.51-2.19.76-4.05.76-1.58,0-3.16-.24-4.74-.71s-2.94-1.07-4.07-1.8l-2.27,4.5c1.14.79,2.67,1.46,4.62,2.01s3.97.83,6.08.83c2.37,0,4.4-.33,6.11-.97,1.7-.65,3.02-1.55,3.95-2.72.93-1.17,1.4-2.54,1.4-4.12,0-1.42-.28-2.57-.85-3.46-.57-.88-1.32-1.57-2.25-2.06Z"/>
      <path class="cls-1" d="M673,481.81c-.93-.49-1.95-.88-3.05-1.16-1.11-.28-2.22-.5-3.34-.64s-2.14-.32-3.05-.54c-.92-.22-1.66-.52-2.23-.9-.57-.38-.85-.95-.85-1.71,0-.82.43-1.5,1.3-2.04.87-.53,2.2-.8,4-.8,1.2,0,2.41.14,3.62.4s2.42.76,3.62,1.49l2.27-4.5c-1.14-.69-2.57-1.23-4.31-1.61-1.73-.38-3.45-.57-5.16-.57-2.27,0-4.24.32-5.89.97s-2.94,1.56-3.86,2.75c-.91,1.18-1.37,2.58-1.37,4.19,0,1.45.28,2.62.85,3.5s1.31,1.59,2.23,2.11c.91.52,1.93.92,3.05,1.18s2.24.48,3.36.64,2.14.33,3.05.52c.91.19,1.65.47,2.23.83.57.36.85.89.85,1.59,0,.85-.42,1.53-1.25,2.03-.84.51-2.19.76-4.05.76-1.58,0-3.16-.24-4.74-.71s-2.94-1.07-4.07-1.8l-2.27,4.5c1.14.79,2.67,1.46,4.62,2.01s3.97.83,6.08.83c2.37,0,4.4-.33,6.11-.97,1.7-.65,3.02-1.55,3.95-2.72.93-1.17,1.4-2.54,1.4-4.12,0-1.42-.28-2.57-.85-3.46-.57-.88-1.32-1.57-2.25-2.06Z"/>
      <path class="cls-1" d="M698.59,470.85c-1.93-1.07-4.12-1.61-6.58-1.61s-4.77.55-6.75,1.66c-1.97,1.1-3.52,2.63-4.64,4.57-1.12,1.94-1.68,4.18-1.68,6.7s.57,4.72,1.73,6.67c1.15,1.96,2.78,3.5,4.87,4.62,2.1,1.12,4.55,1.68,7.36,1.68,2.21,0,4.17-.35,5.89-1.06s3.15-1.73,4.29-3.05l-3.17-3.65c-.88.95-1.89,1.64-3.03,2.08-1.14.44-2.41.66-3.83.66-1.64,0-3.09-.31-4.36-.95-1.26-.63-2.24-1.53-2.94-2.7-.44-.73-.72-1.54-.88-2.42h19.82c.03-.28.06-.58.07-.9s.02-.6.02-.85c0-2.65-.55-4.95-1.66-6.91-1.1-1.95-2.62-3.47-4.54-4.54ZM685.64,477.55c.61-1.12,1.47-2,2.56-2.63s2.36-.95,3.81-.95,2.67.32,3.76.95,1.95,1.5,2.58,2.6c.45.78.72,1.65.83,2.6h-14.36c.13-.95.4-1.81.82-2.58Z"/>
      <path class="cls-1" d="M715.91,473.23v-3.7h-5.63v25.28h5.92v-12.26c0-2.59.66-4.54,1.99-5.85s3.11-1.96,5.35-1.96c.22,0,.44,0,.66.02.22.02.46.06.71.12v-5.63c-2.43,0-4.46.44-6.09,1.33-1.21.66-2.18,1.55-2.91,2.66Z"/>
      <polygon class="cls-1" points="740.55 488.27 732.72 469.53 726.57 469.53 737.41 494.81 743.51 494.81 754.35 469.53 748.67 469.53 740.55 488.27"/>
      <path class="cls-1" d="M760.84,458.26c-1.1,0-2.01.34-2.72,1.02s-1.06,1.52-1.06,2.53.35,1.81,1.06,2.51c.71.7,1.62,1.04,2.72,1.04s2.05-.35,2.75-1.06,1.04-1.59,1.04-2.63c0-.98-.35-1.79-1.06-2.44s-1.62-.97-2.72-.97Z"/>
      <rect class="cls-1" height="25.28" width="5.92" x="757.85" y="469.53"/>
      <path class="cls-1" d="M778.97,475.21c1.17-.63,2.48-.95,3.93-.95,1.26,0,2.44.28,3.53.85,1.09.57,2.01,1.45,2.77,2.65l4.55-2.65c-.98-1.92-2.41-3.38-4.29-4.38-1.88-.99-4.05-1.49-6.51-1.49-2.65,0-5.01.55-7.08,1.66s-3.69,2.63-4.85,4.57c-1.17,1.94-1.75,4.18-1.75,6.7s.58,4.72,1.75,6.67c1.17,1.96,2.79,3.5,4.85,4.62,2.07,1.12,4.42,1.68,7.08,1.68,2.46,0,4.63-.51,6.51-1.54,1.88-1.03,3.31-2.48,4.29-4.38l-4.55-2.65c-.76,1.2-1.68,2.08-2.77,2.65s-2.27.85-3.53.85c-1.45,0-2.76-.32-3.93-.95-1.17-.63-2.08-1.54-2.75-2.72-.66-1.18-.99-2.6-.99-4.24s.33-3.05.99-4.24c.66-1.18,1.58-2.09,2.75-2.72Z"/>
      <path class="cls-1" d="M820.39,475.4c-1.1-1.95-2.62-3.47-4.54-4.54s-4.12-1.61-6.58-1.61-4.77.55-6.75,1.66c-1.97,1.1-3.52,2.63-4.64,4.57-1.12,1.94-1.68,4.18-1.68,6.7s.57,4.72,1.73,6.67c1.15,1.96,2.78,3.5,4.87,4.62,2.1,1.12,4.55,1.68,7.36,1.68,2.21,0,4.17-.35,5.89-1.06s3.15-1.73,4.29-3.05l-3.17-3.65c-.88.95-1.89,1.64-3.03,2.08-1.14.44-2.41.66-3.83.66-1.64,0-3.09-.31-4.36-.95-1.26-.63-2.24-1.53-2.94-2.7-.44-.73-.72-1.54-.88-2.42h19.82c.03-.28.06-.58.07-.9s.02-.6.02-.85c0-2.65-.55-4.95-1.66-6.91ZM802.9,477.55c.61-1.12,1.47-2,2.56-2.63s2.36-.95,3.81-.95,2.67.32,3.76.95,1.95,1.5,2.58,2.6c.45.78.72,1.65.83,2.6h-14.36c.13-.95.4-1.81.82-2.58Z"/>
    </g>
  </g>
  <g>
    <g>
      <path class="cls-1" d="M275.94,234.54c-3.03-1.88-5.6-4.42-7.71-7.31l-35.87-49.1-5.62,15.12s7.95,7.95,22.49,21.13c19.58,21.13-5.23,38.19-5.23,38.19l8.59,9.45c3.38,3.72,7.89,6.33,12.87,7.07.67.1,1.32.16,1.91.16,10.1,0,18.29-8.19,18.29-18.29,0-6.62-4.2-13-9.71-16.41ZM267.36,260.64c-5.35,0-9.68-4.33-9.68-9.68s4.33-9.68,9.68-9.68,9.68,4.33,9.68,9.68-4.33,9.68-9.68,9.68Z"/>
      <g>
        <path class="cls-1" d="M189.45,95.44c-2.87-4.78-3.35-10.58-1.5-15.84,2.45-6.93,4.21-18.29-3.47-30.17-12.41-19.19-37.41-17.45-37.41-17.45l20.89,28.92c2.37,3.28,1.59,7.86-1.73,10.17l-14.16,9.86c-3.29,2.29-7.82,1.47-10.09-1.84l-20.69-30.06s-11.44,21.23,1.84,40.22c6.14,8.79,16.08,12.72,22.41,14.37,5.03,1.31,9.31,4.58,11.79,9.15,5.35,9.87,9.13,20.38,9.13,20.38l4.67.97c2.43.5,4.62,1.82,6.21,3.73l9.28,11.19,9.92-27.59c.75-2.09,1.65-4.12,2.69-6.07l2.51-4.72c-4.97-4.09-9.25-10.19-12.28-15.24ZM171.79,125.9l-15.31-25.2,22-13.08,14.73,24.23-21.42,14.05Z"/>
        <polygon class="cls-1" points="163.08 102.35 173.31 119.17 186.7 110.38 176.84 94.16 163.08 102.35"/>
      </g>
    </g>
    <g>
      <path d="M153.33,249.55c-2.11,5.06-.02,10.89,4.85,13.41,4.46,2.3,10.79,4.82,19.09,6.36,4.92.91,9.82-1.78,11.7-6.42l8.72-21.66-29.6-27.03-14.76,35.35Z"/>
      <path d="M239.3,122.34l1.7-3.96c.62-1.44-.03-3.1-1.46-3.74l-.6-.27-6.3-8.72-12.31.78-3.26,6.92c-3.61-.74-7.35,1.13-8.83,4.65l-17.25,41.3,28.98,26.59,21.89-54.37c1.35-3.36.18-7.09-2.58-9.18Z"/>
    </g>
    <path class="cls-1" d="M160.71,178.59l-56.46-50.36c-2.47-2.21-5.41-3.84-8.61-4.7-3.39-.9-8.16-3.05-11.42-8.13-2.93-4.57-5.18-8.42-6.65-11.04-1.22-2.18-.89-4.89.81-6.72h0c1.52-1.63,3.83-2.24,5.95-1.56,3.62,1.16,9.39,3.05,13.97,4.71,3.9,1.41,6.67,5.5,8.31,10.67,1.09,3.42,3.14,6.46,5.77,8.9l55.44,51.38-7.11,6.85Z"/>
    <path d="M186.25,167.94l-24.45,27.54-6.36-5.82c-2.2-2-2.4-5.39-.46-7.64,7.63-8.84,14.03-15.47,17.84-19.27,2.1-2.08,5.43-2.15,7.61-.15l5.82,5.34Z"/>
    <g>
      <polygon points="534.17 105.39 534.17 46.33 496.76 46.33 496.76 78.46 407.69 14.34 250.97 127.74 250.97 132.97 237.98 164.96 281.6 224.56 281.6 155.85 407.69 64.55 535.33 156.82 535.33 269.63 598.33 269.63 598.33 196.36 660.55 196.36 534.17 105.39"/>
      <rect height="27.01" width="27.01" x="377.42" y="115.14"/>
      <rect height="27.01" width="27.01" x="412.95" y="115.14"/>
      <rect height="27.01" width="27.01" x="377.42" y="148.48"/>
      <rect height="27.01" width="27.01" x="412.95" y="148.48"/>
    </g>
    <path class="cls-1" d="M243.25,220.26l-56.99-52.33-24.45,27.54,56.98,52.04c6.49,5.93,16.6,5.44,22.38-1.15,1.45-1.66,2.94-3.52,4.4-5.58,4.51-6.41,3.47-15.22-2.32-20.53ZM227.88,242.52c-.43.47-1.03.72-1.62.72-.53,0-1.06-.19-1.48-.57l-50.98-46.52c-.9-.82-.96-2.21-.14-3.11.82-.9,2.21-.96,3.11-.14l50.98,46.52c.9.82.96,2.21.14,3.11ZM240.29,230.11c-.43.48-1.03.72-1.63.72-.53,0-1.05-.19-1.48-.57l-52.72-47.78c-.9-.82-.97-2.21-.15-3.1.82-.9,2.21-.97,3.1-.15l52.72,47.78c.9.82.97,2.21.15,3.1Z"/>
    <g>
      <path class="cls-1" d="M288.61,48.11l10.5-22.5c1.04-2.22,3.66-3.19,5.89-2.19l19.13,8.58c2.25,1.01,3.26,3.65,2.26,5.91l-10.28,23.12c-1.02,2.3-3.74,3.31-6.02,2.23l-19.36-9.2c-2.22-1.06-3.18-3.71-2.14-5.94Z"/>
      <path class="cls-1" d="M288.19,44.49l8.29-17.45s-5.48-.97-13.18-6.26c-1.4-.96-2.45-2.36-2.99-3.97l-1.89-5.61c-.62-1.85-1.9-3.41-3.61-4.35-4.56-2.48-14.87-6.85-31.14-6.85-34.89,0-51.24,28.49-51.24,28.49,0,0,19.97-8.26,32.37-8.53,3.87-.08,7.39.37,10.46,1.09,7.86,1.84,12.28,10.21,9.53,17.8l-24.45,67.56,18.61,7.95,26.09-64.65c2.82-6.99,10.8-10.34,17.77-7.46l5.38,2.23Z"/>
    </g>
  </g>
</svg>